<svg width="18" height="18" viewBox="0 0 18 18" fill="none" xmlns="http://www.w3.org/2000/svg">
<g clip-path="url(#clip0_722_884)">
<path d="M7.578 14.625H10.422C10.8787 14.625 11.25 14.2459 11.25 13.7812C11.25 13.3166 10.8787 12.9375 10.422 12.9375H7.578C7.12125 12.9375 6.75 13.3166 6.75 13.7812C6.75 14.2459 7.12125 14.625 7.578 14.625ZM5.90625 5.625C5.23492 5.625 4.59109 5.89168 4.11639 6.36639C3.64168 6.84109 3.375 7.48492 3.375 8.15625C3.375 8.82758 3.64168 9.47141 4.11639 9.94611C4.59109 10.4208 5.23492 10.6875 5.90625 10.6875H12.0938C12.7651 10.6875 13.4089 10.4208 13.8836 9.94611C14.3583 9.47141 14.625 8.82758 14.625 8.15625C14.625 7.48492 14.3583 6.84109 13.8836 6.36639C13.4089 5.89168 12.7651 5.625 12.0938 5.625H5.90625ZM6.32812 6.75C6.71625 6.75 7.03125 7.065 7.03125 7.45312V8.85938C7.03125 9.04586 6.95717 9.2247 6.82531 9.35656C6.69345 9.48842 6.51461 9.5625 6.32812 9.5625C6.14164 9.5625 5.9628 9.48842 5.83094 9.35656C5.69908 9.2247 5.625 9.04586 5.625 8.85938V7.45312C5.625 7.065 5.94 6.75 6.32812 6.75ZM10.9688 7.45312C10.9688 7.26664 11.0428 7.0878 11.1747 6.95594C11.3066 6.82408 11.4854 6.75 11.6719 6.75C11.8584 6.75 12.0372 6.82408 12.1691 6.95594C12.3009 7.0878 12.375 7.26664 12.375 7.45312V8.85938C12.375 9.04586 12.3009 9.2247 12.1691 9.35656C12.0372 9.48842 11.8584 9.5625 11.6719 9.5625C11.4854 9.5625 11.3066 9.48842 11.1747 9.35656C11.0428 9.2247 10.9688 9.04586 10.9688 8.85938V7.45312Z" fill="white"/>
<path d="M2.25 2.76467C2.43766 2.69833 2.59581 2.56778 2.69652 2.3961C2.79723 2.22442 2.83401 2.02267 2.80035 1.8265C2.76669 1.63033 2.66477 1.45237 2.51259 1.32408C2.36042 1.19579 2.16779 1.12543 1.96875 1.12543C1.76971 1.12543 1.57709 1.19579 1.42491 1.32408C1.27273 1.45237 1.17081 1.63033 1.13715 1.8265C1.1035 2.02267 1.14027 2.22442 1.24098 2.3961C1.34169 2.56778 1.49985 2.69833 1.6875 2.76467V6.90186C1.51681 7.00041 1.37501 7.14206 1.27629 7.31265C1.17757 7.48324 1.1254 7.67677 1.125 7.87386V11.8136C1.125 12.2276 1.35169 12.591 1.6875 12.7862V13.5281C1.68713 14.0416 1.788 14.5501 1.98433 15.0246C2.18067 15.4991 2.46861 15.9302 2.83171 16.2933C3.1948 16.6564 3.62591 16.9443 4.10039 17.1407C4.57486 17.337 5.08339 17.4379 5.59688 17.4375H12.4031C12.9162 17.438 13.4243 17.3374 13.8985 17.1415C14.3727 16.9456 14.8036 16.6581 15.1666 16.2956C15.5297 15.9331 15.8177 15.5026 16.0144 15.0287C16.211 14.5548 16.3123 14.0468 16.3125 13.5337V12.7519C16.6483 12.5567 16.875 12.1927 16.875 11.7787V7.83561C16.875 7.42161 16.6483 7.05767 16.3125 6.86248V2.82261C16.508 2.75599 16.6735 2.62214 16.7795 2.4449C16.8855 2.26766 16.9252 2.05855 16.8914 1.8548C16.8576 1.65105 16.7526 1.46591 16.5951 1.33235C16.4376 1.19878 16.2378 1.12547 16.0313 1.12547C15.8247 1.12547 15.6249 1.19878 15.4674 1.33235C15.3099 1.46591 15.2049 1.65105 15.1711 1.8548C15.1373 2.05855 15.177 2.26766 15.283 2.4449C15.389 2.62214 15.5545 2.75599 15.75 2.82261V4.73286C15.3997 4.14739 14.9036 3.66274 14.3101 3.32617C13.7166 2.9896 13.046 2.81262 12.3638 2.81248H11.7647C11.8097 2.68519 11.8235 2.54894 11.8049 2.41521C11.7864 2.28147 11.736 2.15414 11.658 2.04391C11.58 1.93369 11.4767 1.84379 11.3568 1.78177C11.2368 1.71975 11.1038 1.68741 10.9688 1.68748H7.03125C6.89623 1.68741 6.76316 1.71975 6.64323 1.78177C6.5233 1.84379 6.42 1.93369 6.34202 2.04391C6.26403 2.15414 6.21364 2.28147 6.19508 2.41521C6.17651 2.54894 6.19031 2.68519 6.23531 2.81248H5.64188C4.20188 2.81248 2.94188 3.58255 2.25 4.73286V2.76467ZM2.8125 6.76686C2.8125 6.01646 3.1106 5.2968 3.64121 4.76619C4.17182 4.23558 4.89148 3.93748 5.64188 3.93748H12.3638C13.1133 3.93868 13.8317 4.23733 14.3611 4.76785C14.8906 5.29836 15.1878 6.01735 15.1875 6.76686V13.5337C15.1873 13.8991 15.1151 14.2608 14.975 14.5982C14.8349 14.9356 14.6297 15.242 14.3711 15.5001C14.1126 15.7582 13.8057 15.9627 13.468 16.1021C13.1303 16.2415 12.7684 16.313 12.4031 16.3125H5.59688C5.23112 16.3129 4.86889 16.2411 4.53091 16.1013C4.19292 15.9615 3.88583 15.7564 3.6272 15.4978C3.36857 15.2392 3.16349 14.9321 3.0237 14.5941C2.8839 14.2561 2.81213 13.8939 2.8125 13.5281V6.76686Z" fill="white"/>
</g>
<defs>
<clipPath id="clip0_722_884">
<rect width="18" height="18" fill="white"/>
</clipPath>
</defs>
</svg>
